<svg width="72" height="72" viewBox="0 0 72 72" fill="none" xmlns="http://www.w3.org/2000/svg">
<path fill-rule="evenodd" clip-rule="evenodd" d="M67.486 25.7685H61.1596L51.223 2.97657C50.9171 2.34293 50.3322 1.95058 49.6983 1.95339H44.5988C44.6024 1.43516 44.4246 0.937189 44.104 0.570011C43.7834 0.203532 43.3475 -0.00207893 42.8932 1.58509e-05H29.3234C28.8691 -0.00138282 28.4326 0.20423 28.1113 0.570709C27.7901 0.937189 27.6104 1.43444 27.6117 1.95339H22.5263C21.8893 1.9464 21.3001 2.33944 20.993 2.97657L10.5492 25.7685H4.47489C3.28123 25.772 2.13841 26.3182 1.29859 27.2855C0.459281 28.2527 -0.00787252 29.562 0.000100404 30.9229V36.0597C0.000100404 37.4137 0.471553 38.7124 1.31025 39.6706C2.14956 40.6281 3.2881 41.1666 4.47493 41.1673L8.98717 72H62.9723L67.4865 41.1673C68.6795 41.1757 69.8265 40.6421 70.6733 39.6832C71.5205 38.7251 71.9975 37.4207 71.9999 36.0598V30.9229C72.0061 29.5549 71.5328 28.2402 70.6849 27.2721C69.8376 26.3042 68.6853 25.7629 67.486 25.7685ZM23.7229 64.1693C23.7198 65.0834 23.0724 65.8233 22.2711 65.8289H21.6476C20.8445 65.8282 20.1928 65.0854 20.1915 64.1693V47.0638C20.1897 46.6218 20.3417 46.1966 20.6152 45.8826C20.8886 45.5686 21.2601 45.3909 21.6476 45.3902H22.2711C23.0767 45.3972 23.7259 46.1456 23.7229 47.0638V64.1693ZM33.0741 64.1693C33.0802 64.605 32.9343 65.0246 32.6676 65.3365C32.4009 65.6477 32.0361 65.8254 31.6548 65.8289H30.9982C30.1939 65.8282 29.5422 65.0861 29.5397 64.1693V47.0638C29.5379 46.6211 29.6911 46.1959 29.9646 45.8819C30.238 45.5679 30.6101 45.3909 30.9982 45.3902H31.6548C32.0386 45.3944 32.4046 45.5742 32.6713 45.8882C32.938 46.2029 33.0833 46.6267 33.0747 47.0638L33.0741 64.1693ZM42.4603 64.1693C42.4566 65.0854 41.8068 65.8261 41.0036 65.8289H40.347C39.5439 65.8254 38.8934 65.0847 38.8885 64.1693V47.0638C38.8879 46.1435 39.5396 45.3951 40.347 45.3902H41.0036C41.8111 45.3944 42.4628 46.1428 42.4609 47.0638L42.4603 64.1693ZM51.809 64.1693C51.8066 65.0882 51.153 65.831 50.3475 65.8289H49.6988C48.8951 65.8282 48.2446 65.0854 48.2434 64.1693V47.0638C48.2416 46.6218 48.3936 46.1966 48.6664 45.8826C48.9392 45.5686 49.3108 45.3909 49.6988 45.3902H50.3475C50.7362 45.3895 51.1089 45.5665 51.3836 45.8805C51.6582 46.1945 51.8115 46.6204 51.8097 47.0638L51.809 64.1693ZM14.3363 25.7685L23.5766 5.79647H27.6118C27.6106 6.31401 27.7909 6.81128 28.1121 7.17774C28.4334 7.54422 28.8693 7.74913 29.3236 7.74773H42.8934C43.3477 7.74983 43.7836 7.54492 44.1036 7.17844C44.4242 6.81196 44.6026 6.31401 44.5989 5.79645H48.6403L57.3712 25.7685L14.3363 25.7685Z" fill="#033858"/>
</svg>
