<svg width="64" height="48" viewBox="0 0 64 48" fill="none" xmlns="http://www.w3.org/2000/svg">
<path d="M24 24C27.1826 24 30.2348 22.7357 32.4853 20.4853C34.7357 18.2348 36 15.1826 36 12C36 8.8174 34.7357 5.76516 32.4853 3.51472C30.2348 1.26428 27.1826 0 24 0C20.8174 0 17.7652 1.26428 15.5147 3.51472C13.2643 5.76516 12 8.8174 12 12C12 15.1826 13.2643 18.2348 15.5147 20.4853C17.7652 22.7357 20.8174 24 24 24ZM4 48C4 48 0 48 0 44C0 40 4 28 24 28C44 28 48 40 48 44C48 48 44 48 44 48H4ZM44 6C44 5.46957 44.2107 4.96086 44.5858 4.58579C44.9609 4.21071 45.4696 4 46 4H62C62.5304 4 63.0391 4.21071 63.4142 4.58579C63.7893 4.96086 64 5.46957 64 6C64 6.53043 63.7893 7.03914 63.4142 7.41421C63.0391 7.78929 62.5304 8 62 8H46C45.4696 8 44.9609 7.78929 44.5858 7.41421C44.2107 7.03914 44 6.53043 44 6ZM46 16C45.4696 16 44.9609 16.2107 44.5858 16.5858C44.2107 16.9609 44 17.4696 44 18C44 18.5304 44.2107 19.0391 44.5858 19.4142C44.9609 19.7893 45.4696 20 46 20H62C62.5304 20 63.0391 19.7893 63.4142 19.4142C63.7893 19.0391 64 18.5304 64 18C64 17.4696 63.7893 16.9609 63.4142 16.5858C63.0391 16.2107 62.5304 16 62 16H46ZM54 28C53.4696 28 52.9609 28.2107 52.5858 28.5858C52.2107 28.9609 52 29.4696 52 30C52 30.5304 52.2107 31.0391 52.5858 31.4142C52.9609 31.7893 53.4696 32 54 32H62C62.5304 32 63.0391 31.7893 63.4142 31.4142C63.7893 31.0391 64 30.5304 64 30C64 29.4696 63.7893 28.9609 63.4142 28.5858C63.0391 28.2107 62.5304 28 62 28H54ZM54 40C53.4696 40 52.9609 40.2107 52.5858 40.5858C52.2107 40.9609 52 41.4696 52 42C52 42.5304 52.2107 43.0391 52.5858 43.4142C52.9609 43.7893 53.4696 44 54 44H62C62.5304 44 63.0391 43.7893 63.4142 43.4142C63.7893 43.0391 64 42.5304 64 42C64 41.4696 63.7893 40.9609 63.4142 40.5858C63.0391 40.2107 62.5304 40 62 40H54Z" fill="#033858"/>
</svg>
