<svg width="57" height="72" viewBox="0 0 57 72" fill="none" xmlns="http://www.w3.org/2000/svg">
<path d="M16.5738 72C15.3363 72 14.3741 71.0377 14.3741 69.8459C14.3741 68.6541 15.3363 67.6462 16.5738 67.6462H25.6943V37.1685L0.441746 3.48298C-0.658138 2.0165 0.441747 0 2.13734 0H53.9719C55.7137 0 56.8136 2.0165 55.7137 3.48298L30.4611 37.1685V67.6462H39.5816C40.7734 67.6462 41.7814 68.6547 41.7814 69.8459C41.7814 71.0377 40.7729 72 39.5816 72H16.5738ZM28.0774 33.0893L40.1309 17.0026C39.1224 17.1402 38.1602 17.2316 37.1979 17.2316C34.1731 17.3235 31.2857 16.9107 28.307 16.1774C25.7406 15.5356 23.1281 15.4899 20.8368 16.0855C19.3245 16.4521 17.9038 17.094 16.7576 18.0106L28.0779 33.0894L28.0774 33.0893Z" fill="#033858"/>
</svg>
