<svg width="112" height="48" viewBox="0 0 112 48" fill="none" xmlns="http://www.w3.org/2000/svg">
<path d="M102 4C102.53 4 103.039 4.21071 103.414 4.58579C103.789 4.96086 104 5.46957 104 6V36H56V6C56 5.46957 56.2107 4.96086 56.5858 4.58579C56.9609 4.21071 57.4696 4 58 4H102ZM58 0C56.4087 0 54.8826 0.632141 53.7574 1.75736C52.6321 2.88258 52 4.4087 52 6V40H108V6C108 4.4087 107.368 2.88258 106.243 1.75736C105.117 0.632141 103.591 0 102 0H58ZM48 42H112C112 43.5913 111.368 45.1174 110.243 46.2426C109.117 47.3679 107.591 48 106 48H54C52.4087 48 50.8826 47.3679 49.7574 46.2426C48.6321 45.1174 48 43.5913 48 42V42Z" fill="#033858"/>
<path d="M0 6C0 4.4087 0.632141 2.88258 1.75736 1.75736C2.88258 0.632141 4.4087 0 6 0L24 0C25.5913 0 27.1174 0.632141 28.2426 1.75736C29.3679 2.88258 30 4.4087 30 6V42C30 43.5913 29.3679 45.1174 28.2426 46.2426C27.1174 47.3679 25.5913 48 24 48H6C4.4087 48 2.88258 47.3679 1.75736 46.2426C0.632141 45.1174 0 43.5913 0 42V6ZM18 39C18 38.2044 17.6839 37.4413 17.1213 36.8787C16.5587 36.3161 15.7956 36 15 36C14.2044 36 13.4413 36.3161 12.8787 36.8787C12.3161 37.4413 12 38.2044 12 39C12 39.7956 12.3161 40.5587 12.8787 41.1213C13.4413 41.6839 14.2044 42 15 42C15.7956 42 16.5587 41.6839 17.1213 41.1213C17.6839 40.5587 18 39.7956 18 39Z" fill="#033858"/>
</svg>
