<svg width="72" height="72" viewBox="0 0 72 72" fill="none" xmlns="http://www.w3.org/2000/svg">
<path d="M69.747 7.88136H65.2474V4.50665C65.2489 3.93817 65.0355 3.38979 64.6493 2.97242C64.2631 2.55505 63.7333 2.29948 63.1663 2.2568L32.794 0.0069993C32.1713 -0.0422148 31.5556 0.169705 31.0956 0.592051C30.6326 1.02142 30.371 1.62556 30.3755 2.25678V7.88128H25.8759C25.2793 7.88128 24.7068 8.11832 24.2849 8.54015C23.8631 8.96198 23.6261 9.53448 23.6261 10.1311V15.7556C23.6261 16.3522 23.8631 16.9247 24.2849 17.3465C24.7068 17.7683 25.2793 18.0054 25.8759 18.0054H26.011L26.1008 19.3442C19.8009 19.415 13.7822 21.9647 9.34819 26.4406C4.91441 30.9165 2.4215 36.9589 2.41044 43.2588V43.5511C1.18511 44.3852 0.355536 45.6844 0.112943 47.1468C-0.12911 48.6087 0.237486 50.1063 1.12786 51.2908C0.416255 52.2098 0.0215371 53.3343 0.00296021 54.4968C0.0114974 56.3027 0.91242 57.987 2.4105 58.9964V60.0425C2.40749 63.2109 3.66296 66.2505 5.90117 68.4933C8.1394 70.7355 11.1771 71.997 14.3455 72H64.1227C64.6967 72.001 65.2496 71.7826 65.6675 71.3893C66.0858 70.9961 66.3379 70.4583 66.3725 69.8853L69.6121 18.0049H69.7472C70.3438 18.0049 70.9163 17.7678 71.3382 17.346C71.76 16.9242 71.997 16.3517 71.997 15.7551V10.1306C71.997 9.53398 71.76 8.96148 71.3382 8.53965C70.9163 8.11782 70.3438 7.88078 69.7472 7.88078L69.747 7.88136ZM34.8751 4.67532L60.7478 6.59871V7.88131H34.8751V4.67532ZM5.45923 47.1182H47.249C47.5222 47.0885 47.7948 47.1764 47.9992 47.3602C48.2036 47.5435 48.3206 47.8051 48.3206 48.0798C48.3206 48.3545 48.2036 48.6167 47.9992 48.8C47.7948 48.9833 47.5222 49.0717 47.249 49.042H5.45923C4.92942 49.0355 4.50306 48.6041 4.50306 48.0743C4.50306 47.5465 4.93092 47.1182 5.45923 47.1182V47.1182ZM5.45923 55.465C4.92942 55.459 4.50306 55.0276 4.50306 54.4978C4.50306 53.9695 4.93092 53.5417 5.45923 53.5417H47.249C47.5222 53.512 47.7948 53.5999 47.9992 53.7832C48.2036 53.967 48.3206 54.2287 48.3206 54.5034C48.3206 54.7781 48.2036 55.0397 47.9992 55.223C47.7948 55.4068 47.5222 55.4947 47.249 55.4651L5.45923 55.465ZM62.0077 67.5015H47.6424C49.3378 65.3937 50.2628 62.7709 50.2633 60.0661V59.0195C51.7608 58.0106 52.6622 56.3258 52.6709 54.5199C52.6523 53.3579 52.2576 52.233 51.546 51.3139C52.4308 50.1222 52.7884 48.6202 52.5353 47.1573C52.2827 45.6949 51.441 44.3998 50.2072 43.5747V43.2824C50.2027 37.6911 48.2437 32.2774 44.6691 27.9786C41.095 23.6795 36.1304 20.7642 30.6342 19.7387L30.5217 18.0061H65.1018L62.0077 67.5015Z" fill="#033858"/>
</svg>
