<svg width="57" height="72" viewBox="0 0 57 72" fill="none" xmlns="http://www.w3.org/2000/svg">
<path d="M56.2784 8.36768C56.6773 7.7617 56.5177 6.9285 55.9596 6.3986C55.1619 5.71707 53.9658 5.94425 53.4072 6.77741C53.4072 6.77741 46.2295 18.0627 44.1554 21.2436C43.8366 21.6979 43.1985 21.8495 42.7201 21.6224C42.2416 21.3196 42.0024 20.7137 42.3212 20.2593C44.2355 16.9267 50.8553 5.41448 50.8553 5.41448C51.3338 4.58132 50.9349 3.52101 49.8984 3.14218C49.1807 2.915 48.3829 3.21772 47.9841 3.8237L38.7323 18.2899C38.4136 18.7442 37.7754 18.8958 37.297 18.6687C36.8186 18.3659 36.5794 17.76 36.8981 17.3056C38.8124 13.973 45.4323 2.46078 45.4323 2.46078C45.9107 1.62762 45.5118 0.567305 44.4754 0.188474C43.7577 -0.038702 42.9599 0.264023 42.5611 0.870004L32.7513 16.1693L31.5552 18.2144C30.279 20.2595 29.88 22.6828 30.4386 24.5763L31.6348 28.666L28.6039 32.9072L19.0334 19.2742L6.35236 0.869598C5.7938 0.036442 4.51813 -0.266271 3.64081 0.263619C0.929265 1.77826 -0.187314 4.8837 0.929265 7.6103L10.1009 29.8776C11.6164 33.4373 16.0825 34.9521 19.5919 33.0586L20.788 32.4526L24.2974 39.1934L7.07022 63.3542C5.3156 65.9292 6.11332 69.3373 8.90446 70.8525L9.3829 71.1552C12.1746 72.6698 15.7635 71.6856 17.1192 68.8829L28.3649 46.9943L39.9293 69.0344C41.3646 71.761 44.874 72.8213 47.6656 71.3067L48.1441 71.0039C50.9358 69.4893 51.8131 66.005 49.9783 63.5056L32.5916 38.739L36.3401 31.3923L40.6466 30.332C42.7201 29.8015 44.6344 28.2869 45.9106 26.2423L47.1067 24.1972L56.2784 8.36768Z" fill="#033858"/>
</svg>
