<svg xmlns="http://www.w3.org/2000/svg" viewBox="0 0 763.68 211.87" style="fill: rgb(0, 0, 0);" role="img"><g data-name="Camada 2"><g><g data-name="Logo horizontal"><g><path d="M240.31,164.61H160.5A8.24,8.24,0,0,1,153,159.8l-43-94H31.28a8.23,8.23,0,1,1,0-16.46h71.19l-3-6.58H21.4a8.23,8.23,0,0,1,0-16.46H91.92L87.4,16.47l-79.16.08h0A8.23,8.23,0,0,1,8.22.09L92.67,0h0a8.25,8.25,0,0,1,7.49,4.8l65.61,143.35h69L277.65,42.8H166.26a8.23,8.23,0,1,1,0-16.46H289.89a8.22,8.22,0,0,1,7.62,11.33L247.93,159.48A8.22,8.22,0,0,1,240.31,164.61Z" data-name="3" style="fill: rgb(3, 56, 89);"></path><path d="M165.46,57.41A23.19,23.19,0,0,1,142.3,34.25,22.33,22.33,0,0,1,153.4,14.9,24,24,0,0,1,177,14.49c9.08,5,13.23,14.87,10.59,25.2C185.37,48.51,177.64,57.41,165.46,57.41Zm.14-39.25a17.38,17.38,0,0,0-8.85,2.41,15.61,15.61,0,0,0-7.86,13.68,16.58,16.58,0,0,0,16.57,16.57c8.65,0,14.16-6.41,15.79-12.77,1.49-5.82.34-13.56-7.37-17.79A17.3,17.3,0,0,0,165.6,18.16Z" data-name="2" style="fill: rgb(3, 56, 89);"></path><path d="M152.32,34.2c0-10.36,12-17.92,22.81-9.65,8.27,10.86.71,22.82-9.64,22.82A13.17,13.17,0,0,1,152.32,34.2" data-name="1" style="fill: rgb(83, 191, 157);"></path></g><g style="fill: rgb(3, 56, 89);"><path d="M763.41,53.34l-8.94,44.55c-3.92,19.65-6.89,39.58-13.07,58.72-5.77,17.82-14,36.85-31.33,46.11a79.32,79.32,0,0,1-26.36,8.53c-10.68,1.45-22.48.58-31.67-5.3a29.42,29.42,0,0,1-12.92-20.44c-1.64-10.39-.36-17.68,6.9-26.11,4.35-5.05,12.09-6.43,17.5-2.47a11.68,11.68,0,0,1,2.39,16.52c-2.46,3.16-6.53,4-8,8.14-2.55,7.33,4.72,13.83,11.22,15.32,8.53,2,17-.69,24.36-5.08,8.5-5.05,15.76-12.13,19.35-21.46,2.62-6.76,4-14.27,5-21.46.58-3.78.91-7.55,1.16-11.37.15-1.81.22-3.63.29-5.48,0-.84-.36-4.83.18-5.34-9.65,9-22.62,17.39-36.52,14.45a19,19,0,0,1-11.26-6.82c-25,30.82-71.31,32.24-60.64-19.61L623,57.19h-3.34a6.76,6.76,0,1,1,0-13.51h6.24l4.83-23a15,15,0,0,1,29.7,3,17.08,17.08,0,0,1-.29,3l-3.38,17.06h7.41a6.76,6.76,0,0,1,0,13.51h-9.88l-14.95,73.49c-4.25,21.39,16.63,12,28.35-4.1-1.92-6.1-2.14-14.16-.07-24.33l6.46-32.79,4.29-21.64a14.17,14.17,0,0,1,13.9-11.44h.26a14.18,14.18,0,0,1,13.87,17c-.54,2.72-1.09,5.41-1.6,8.06q-1.74,8.72-3.38,16.84Q697.94,95.5,695,110.46c-.47,2.39-1,4.82-1.42,7.15-.8,4-1.49,11.44,4.43,12,7.59.65,14.49-6.39,18.59-11.69,7.92-10.13,9.3-22.08,11.69-34.17l3.49-17.28,3.74-18.67a14.22,14.22,0,0,1,27.89,5.56Z" data-name="3" style="fill: inherit;"></path><path d="M576.74,36.38c-6.5,0-13.84,2.47-22,8.17a5.86,5.86,0,0,0-5.77-7H529.35a5.83,5.83,0,0,0-5.73,4.76l-16.09,84c-10.56,15.87-27.7,24.65-24,2.76,4.06-23.53,8.28-46.73,13.61-77.23a13.18,13.18,0,0,0-13-15.51h-3.7a12.69,12.69,0,0,0-12.46,10.46c-6.61,36.89-9.8,54.57-11.36,63.4a47.88,47.88,0,0,1-12.24,24.58c-9.73,10.17-20,12.82-16.81-5.7,3.81-22.44,8.5-46.3,14.12-76.87a13.45,13.45,0,0,0-13.18-15.87h-3.26a13.41,13.41,0,0,0-13.18,10.93l-12.24,64.82c-9.41,54.24,31.77,53.55,55.48,22.65,3.89,27.05,29.63,26.36,49.05,7.77l-9.76,50.95a16.27,16.27,0,0,0-.29,2.94,15.49,15.49,0,0,0,30.72,2.79L535.27,145c4.9,5.56,18.56,10.2,27.74,10.2A34.6,34.6,0,0,0,585.6,147,43.19,43.19,0,0,0,599,130.53c6.94-12.78,10.28-28.35,10.53-43.2C609.74,62.74,597.94,36.38,576.74,36.38Zm.58,65.32c-2,11.19-5.81,21.39-10.28,27.89-5.19,7.48-12.52,12.24-19.86,9.73-5.92-2-9-8.53-7.84-14.67l12.23-62.92A13.19,13.19,0,0,1,559,52.29C582.47,41.61,581.06,81.08,577.32,101.7Z" data-name="2" style="fill: inherit;"></path><path d="M414.4,20.39c-12.31,35.86-27.71,84.3-41.53,122.54A22.65,22.65,0,0,1,353.33,158h0c-12.53.94-23.46-8.78-24.4-21.69L321.3,31.76c-.76-10.44,6.82-19.51,16.95-20.27h0c10.18-.76,19.06,7.16,19.79,17.66l5.66,81.43,31.69-97a10,10,0,0,1,8.76-7h0C411.4,6,416.83,13.33,414.4,20.39Z" data-name="1" style="fill: inherit;"></path></g></g></g></g></svg>
